<?xml version="1.0" standalone="no"?>
<!DOCTYPE svg PUBLIC "-//W3C//DTD SVG 20010904//EN"
 "http://www.w3.org/TR/2001/REC-SVG-20010904/DTD/svg10.dtd">
<svg version="1.0" xmlns="http://www.w3.org/2000/svg"
 width="2048.000000pt" height="2048.000000pt" viewBox="0 0 2048.000000 2048.000000"
 preserveAspectRatio="xMidYMid meet">

<g transform="translate(0.000000,2048.000000) scale(0.100000,-0.100000)"
fill="#000000" stroke="none">
<path d="M7680 12842 l0 -129 133 -27 c909 -190 1637 -532 2199 -1032 l108
-96 0 -1944 c0 -1474 -3 -1944 -12 -1944 -6 0 -59 31 -117 69 -275 178 -626
360 -956 495 -429 176 -1089 350 -1440 381 -38 3 -82 8 -97 11 l-27 5 0 1922
0 1921 -153 23 c-84 12 -161 23 -170 23 -17 0 -18 -106 -18 -2085 l0 -2085 88
0 c213 0 722 -64 1082 -136 332 -67 727 -179 1062 -303 169 -62 390 -152 385
-157 -2 -2 -64 12 -138 31 -611 157 -1629 291 -2248 296 l-154 1 -53 -119
c-29 -65 -53 -121 -54 -125 0 -5 60 -8 133 -8 226 0 858 -42 1282 -86 245 -24
697 -82 895 -114 102 -16 237 -37 300 -46 l115 -17 52 -51 c29 -28 74 -63 100
-79 195 -112 455 -81 620 76 l53 50 198 34 c371 63 838 125 1187 158 420 39
1000 75 1228 75 59 0 107 4 107 9 0 8 -98 241 -105 249 -1 1 -126 -2 -276 -8
-767 -30 -1677 -164 -2265 -335 -55 -16 169 83 314 139 379 145 892 290 1277
360 294 54 699 100 937 108 l88 3 2 2083 c3 1845 1 2082 -12 2082 -8 0 -86
-10 -172 -22 l-158 -22 0 -1922 0 -1922 -62 -7 c-463 -49 -1110 -224 -1597
-431 -274 -117 -745 -371 -921 -496 l-55 -39 -7 1753 c-7 1973 -6 2133 20
2161 24 27 203 182 287 248 346 274 869 541 1375 704 152 49 499 139 658 171
l92 18 0 128 c0 70 -2 128 -4 128 -21 0 -366 -82 -521 -125 -781 -212 -1438
-550 -1931 -993 l-101 -90 -54 55 c-119 122 -446 366 -644 480 -452 262 -879
433 -1447 582 -125 32 -384 91 -403 91 -3 0 -5 -58 -5 -128z"/>
</g>
</svg>
